# xmcd
#
# Track frame offsets:
#	150
#	17571
#	33286
#	48498
#	62789
#	77414
#	95509
#	113219
#	132378
#	150976
#	166722
#	180599
#	191087
#	207525
#	222287
#	238803
#	254095
#	275258
#	292326
#
# Disc length: 4274 seconds
#
# Revision: 0
# Processed by: cddbd v1.5.2PL0 Copyright (c) Steve Scherf et al.
# Submitted via: audiograbber 1.83.01
#
DISCID=1510b013
DTITLE=The BossHoss - Liberty Of Action
DYEAR=1900
DGENRE=
TTITLE0=Liberty Of Action - Black Edition Mix
TTITLE1=Don't Gimme That
TTITLE2=Live It Up - Single Mix
TTITLE3=The Answer - Black Edition Mix
TTITLE4=I Keep On Dancing - Black Edition Mix
TTITLE5=My Way
TTITLE6=Still Crazy 'Bout Elvis
TTITLE7=Hayday - Black Edition Mix
TTITLE8=My Country
TTITLE9=Sex On Legs
TTITLE10=Riding High, Singing Low
TTITLE11=Money (That's What I Want)
TTITLE12=Run Run Devil
TTITLE13=Killers
TTITLE14=Deals With The Devil
TTITLE15=Nothing But The Best
TTITLE16=Do You Wanna Touch Me (Oh Yeah) Featuring Eagles Of Death Metal
TTITLE17=Run Run Run Featuring Kitty, Daisy and Lewis
TTITLE18=Mad Man Blues Featuring Triggerfinger
EXTD=
EXTT0=
EXTT1=
EXTT2=
EXTT3=
EXTT4=
EXTT5=
EXTT6=
EXTT7=
EXTT8=
EXTT9=
EXTT10=
EXTT11=
EXTT12=
EXTT13=
EXTT14=
EXTT15=
EXTT16=
EXTT17=
EXTT18=
PLAYORDER=
